<svg aria-hidden="true" style="position: absolute; width: 0; height: 0; overflow: hidden;" version="1.1" xmlns="http://www.w3.org/2000/svg" xmlns:xlink="http://www.w3.org/1999/xlink">
<defs>
<symbol id="icon-redmark" viewBox="0 0 33 32">
<path fill="#f03e3d" style="fill: var(--color1, #f03e3d)" d="M12.667 1.333h6.726c6.259 0 11.333 5.074 11.333 11.333v6.667c0 6.259-5.074 11.333-11.333 11.333h-6.726c-6.259 0-11.333-5.074-11.333-11.333v-6.667c0-6.259 5.074-11.333 11.333-11.333z"></path>
<path fill="none" stroke="#fff" style="stroke: var(--color2, #fff)" stroke-linejoin="miter" stroke-linecap="butt" stroke-miterlimit="4" stroke-width="2.6667" d="M12.667 1.333h6.726c6.259 0 11.333 5.074 11.333 11.333v6.667c0 6.259-5.074 11.333-11.333 11.333h-6.726c-6.259 0-11.333-5.074-11.333-11.333v-6.667c0-6.259 5.074-11.333 11.333-11.333z"></path>
<path fill="none" stroke="#f03e3d" style="stroke: var(--color1, #f03e3d)" stroke-linejoin="miter" stroke-linecap="butt" stroke-miterlimit="4" stroke-width="2.6667" d="M12.667 1.333h6.726c6.259 0 11.333 5.074 11.333 11.333v6.667c0 6.259-5.074 11.333-11.333 11.333h-6.726c-6.259 0-11.333-5.074-11.333-11.333v-6.667c0-6.259 5.074-11.333 11.333-11.333z"></path>
<path fill="#fff" style="fill: var(--color2, #fff)" d="M23.601 11.19c-0.286-0.292-0.75-0.292-1.036 0l-8.779 8.949-3.375-3.44c-0.286-0.292-0.75-0.292-1.036 0s-0.286 0.765 0 1.056l3.893 3.968c0.286 0.292 0.75 0.291 1.036 0l9.297-9.478c0.286-0.292 0.286-0.765 0-1.056z"></path>
</symbol>
<symbol id="icon-orangemark" viewBox="0 0 33 32">
<path fill="#f90" style="fill: var(--color3, #f90)" d="M12.667 1.333h6.726c6.259 0 11.333 5.074 11.333 11.333v6.667c0 6.259-5.074 11.333-11.333 11.333h-6.726c-6.259 0-11.333-5.074-11.333-11.333v-6.667c0-6.259 5.074-11.333 11.333-11.333z"></path>
<path fill="none" stroke="#fff" style="stroke: var(--color2, #fff)" stroke-linejoin="miter" stroke-linecap="butt" stroke-miterlimit="4" stroke-width="2.6667" d="M12.667 1.333h6.726c6.259 0 11.333 5.074 11.333 11.333v6.667c0 6.259-5.074 11.333-11.333 11.333h-6.726c-6.259 0-11.333-5.074-11.333-11.333v-6.667c0-6.259 5.074-11.333 11.333-11.333z"></path>
<path fill="none" stroke="#f90" style="stroke: var(--color3, #f90)" stroke-linejoin="miter" stroke-linecap="butt" stroke-miterlimit="4" stroke-width="2.6667" d="M12.667 1.333h6.726c6.259 0 11.333 5.074 11.333 11.333v6.667c0 6.259-5.074 11.333-11.333 11.333h-6.726c-6.259 0-11.333-5.074-11.333-11.333v-6.667c0-6.259 5.074-11.333 11.333-11.333z"></path>
<path fill="#fff" style="fill: var(--color2, #fff)" d="M23.601 11.19c-0.286-0.292-0.75-0.292-1.036 0l-8.779 8.949-3.375-3.44c-0.286-0.292-0.75-0.292-1.036 0s-0.286 0.765 0 1.056l3.893 3.968c0.286 0.292 0.75 0.291 1.036 0l9.297-9.478c0.286-0.292 0.286-0.765 0-1.056z"></path>
</symbol>
<symbol id="icon-bluemark" viewBox="0 0 33 32">
<path fill="#4d8dff" style="fill: var(--color4, #4d8dff)" d="M12.667 1.333h6.726c6.259 0 11.333 5.074 11.333 11.333v6.667c0 6.259-5.074 11.333-11.333 11.333h-6.726c-6.259 0-11.333-5.074-11.333-11.333v-6.667c0-6.259 5.074-11.333 11.333-11.333z"></path>
<path fill="none" stroke="#fff" style="stroke: var(--color2, #fff)" stroke-linejoin="miter" stroke-linecap="butt" stroke-miterlimit="4" stroke-width="2.6667" d="M12.667 1.333h6.726c6.259 0 11.333 5.074 11.333 11.333v6.667c0 6.259-5.074 11.333-11.333 11.333h-6.726c-6.259 0-11.333-5.074-11.333-11.333v-6.667c0-6.259 5.074-11.333 11.333-11.333z"></path>
<path fill="none" stroke="#4d8dff" style="stroke: var(--color4, #4d8dff)" stroke-linejoin="miter" stroke-linecap="butt" stroke-miterlimit="4" stroke-width="2.6667" d="M12.667 1.333h6.726c6.259 0 11.333 5.074 11.333 11.333v6.667c0 6.259-5.074 11.333-11.333 11.333h-6.726c-6.259 0-11.333-5.074-11.333-11.333v-6.667c0-6.259 5.074-11.333 11.333-11.333z"></path>
<path fill="#fff" style="fill: var(--color2, #fff)" d="M23.601 11.19c-0.286-0.292-0.75-0.292-1.036 0l-8.779 8.949-3.375-3.44c-0.286-0.292-0.75-0.292-1.036 0s-0.286 0.765 0 1.056l3.893 3.968c0.286 0.292 0.75 0.291 1.036 0l9.297-9.478c0.286-0.292 0.286-0.765 0-1.056z"></path>
</symbol>
<symbol id="icon-accountants" viewBox="0 0 32 32">
<path fill="#d6b1ff" style="fill: var(--color5, #d6b1ff)" d="M28 32h-12c-0.354 0-0.693-0.141-0.943-0.391s-0.391-0.589-0.391-0.943v-2.667c0-0.354 0.141-0.693 0.391-0.943s0.589-0.391 0.943-0.391h12c0.354 0 0.693 0.141 0.943 0.391s0.391 0.589 0.391 0.943v2.667c0 0.354-0.141 0.693-0.391 0.943s-0.589 0.391-0.943 0.391z"></path>
<path fill="#11b5e4" style="fill: var(--color6, #11b5e4)" d="M28 0h-24c-0.354 0-0.693 0.14-0.943 0.391s-0.391 0.589-0.391 0.943v2.667c0 0.354 0.14 0.693 0.391 0.943s0.589 0.391 0.943 0.391h24c0.354 0 0.693-0.14 0.943-0.391s0.391-0.589 0.391-0.943v-2.667c0-0.354-0.141-0.693-0.391-0.943s-0.589-0.391-0.943-0.391z"></path>
<path fill="#11b5e4" style="fill: var(--color6, #11b5e4)" d="M28 8h-24c-0.354 0-0.693 0.14-0.943 0.391s-0.391 0.589-0.391 0.943v13.333c0 0.354 0.14 0.693 0.391 0.943s0.589 0.391 0.943 0.391h24c0.354 0 0.693-0.141 0.943-0.391s0.391-0.589 0.391-0.943v-13.333c0-0.354-0.141-0.693-0.391-0.943s-0.589-0.391-0.943-0.391z"></path>
</symbol>
<symbol id="icon-arrow" viewBox="0 0 32 32">
<path fill="#02897a" style="fill: var(--color7, #02897a)" d="M11.871 0h8.258c5.416 0 9.806 4.391 9.806 9.806v8.258c0 5.416-4.39 9.806-9.806 9.806h-8.258c-5.416 0-9.806-4.39-9.806-9.806v-8.258c0-5.416 4.391-9.806 9.806-9.806z"></path>
<path fill="#fff" style="fill: var(--color2, #fff)" d="M18.641 14.76l-4.719-4.719c-0.055-0.060-0.129-0.088-0.207-0.088-0.037 0-0.078 0.009-0.111 0.023-0.111 0.046-0.184 0.152-0.184 0.272v6.931c0 0.12 0.074 0.226 0.184 0.272 0.032 0.014 0.074 0.023 0.111 0.023 0.078 0 0.152-0.032 0.207-0.088l1.438-1.438 0.88 2.083c0.065 0.147 0.235 0.221 0.387 0.157l0.816-0.346c0.148-0.065 0.221-0.235 0.157-0.387l-0.926-2.194h1.76c0.12 0 0.226-0.074 0.272-0.184 0.046-0.106 0.023-0.235-0.065-0.318z"></path>
</symbol>
<symbol id="icon-enterpreneur" viewBox="0 0 32 32">
<path fill="#d6b1ff" style="fill: var(--color5, #d6b1ff)" d="M24 13.333h8l-4-5.333-4 5.333zM24 18.667h8l-4 5.333-4-5.333z"></path>
<path fill="#02897a" style="fill: var(--color7, #02897a)" d="M1.333 0h8v32h-8c-0.354 0-0.693-0.141-0.943-0.391s-0.391-0.589-0.391-0.943v-29.333c0-0.354 0.14-0.693 0.391-0.943s0.589-0.391 0.943-0.391z"></path>
<path fill="#02897a" style="fill: var(--color7, #02897a)" d="M12 0h8c0.354 0 0.693 0.14 0.943 0.391s0.391 0.589 0.391 0.943v29.333c0 0.354-0.141 0.693-0.391 0.943s-0.589 0.391-0.943 0.391h-8v-32z"></path>
</symbol>
<symbol id="icon-facebook" viewBox="0 0 32 32">
<path stroke-linejoin="round" stroke-linecap="round" stroke-miterlimit="4" stroke-width="2.6667" d="M24 2.667h-4c-1.768 0-3.464 0.702-4.714 1.953s-1.953 2.946-1.953 4.714v4h-4v5.333h4v10.667h5.333v-10.667h4l1.333-5.333h-5.333v-4c0-0.354 0.141-0.693 0.391-0.943s0.589-0.391 0.943-0.391h4v-5.333z"></path>
</symbol>
<symbol id="icon-hourglass" viewBox="0 0 32 32">
<path fill="#f03e3d" style="fill: var(--color1, #f03e3d)" d="M11.259 0h9.481c6.218 0 11.259 5.041 11.259 11.259v9.481c0 6.218-5.041 11.259-11.259 11.259h-9.481c-6.218 0-11.259-5.041-11.259-11.259v-9.481c0-6.218 5.041-11.259 11.259-11.259z"></path>
<path fill="#fff" style="fill: var(--color2, #fff)" d="M19.302 12.106h0.508c0.095 0 0.169-0.074 0.169-0.169v-0.339c0-0.095-0.074-0.169-0.169-0.169h-7.788c-0.095 0-0.169 0.074-0.169 0.169v0.339c0 0.095 0.074 0.169 0.169 0.169h0.508c0 1.958 0.936 3.376 1.973 4.063-1.037 0.688-1.973 2.106-1.973 4.064h-0.508c-0.095 0-0.169 0.074-0.169 0.169v0.339c0 0.095 0.074 0.169 0.169 0.169h7.788c0.095 0 0.169-0.074 0.169-0.169v-0.339c0-0.095-0.074-0.169-0.169-0.169h-0.508c0-1.958-0.936-3.376-1.974-4.064 1.037-0.688 1.974-2.106 1.974-4.063zM18.624 12.106c0 0.772-0.175 1.455-0.45 2.032h-4.519c-0.275-0.577-0.45-1.259-0.45-2.032h5.418zM18.323 18.54h-4.815c0.392-1.021 1.095-1.746 1.799-2.032h1.217c0.704 0.286 1.407 1.011 1.799 2.032z"></path>
</symbol>
<symbol id="icon-instagram" viewBox="0 0 32 32">
<path stroke-linejoin="round" stroke-linecap="round" stroke-miterlimit="4" stroke-width="2.56" d="M22.4 2.581h-12.8c-3.535 0-6.4 2.865-6.4 6.4v12.8c0 3.535 2.865 6.4 6.4 6.4h12.8c3.535 0 6.4-2.865 6.4-6.4v-12.8c0-3.535-2.865-6.4-6.4-6.4z"></path>
<path stroke-linejoin="round" stroke-linecap="round" stroke-miterlimit="4" stroke-width="2.56" d="M21.12 14.574c0.158 1.065-0.024 2.153-0.52 3.109s-1.281 1.731-2.243 2.215c-0.962 0.484-2.052 0.653-3.115 0.482s-2.046-0.673-2.807-1.435c-0.761-0.761-1.264-1.744-1.435-2.807s-0.003-2.153 0.482-3.115c0.484-0.962 1.259-1.747 2.215-2.243s2.044-0.678 3.109-0.52c1.087 0.161 2.093 0.667 2.869 1.444s1.283 1.783 1.444 2.869z"></path>
<path stroke-linejoin="round" stroke-linecap="round" stroke-miterlimit="4" stroke-width="2.56" d="M23.040 8.341h0.013"></path>
</symbol>
<symbol id="icon-lightning" viewBox="0 0 32 32">
<path fill="#000" style="fill: var(--color8, #000)" d="M17.732 4.201l-9.191 2.829c-3.349 1.031-4.778 3.627-3.949 7.178l2.271 9.735c0.828 3.551 3.195 4.979 6.545 3.948l9.191-2.829c3.349-1.031 4.769-3.624 3.94-7.175l-2.271-9.735c-0.828-3.551-3.186-4.982-6.536-3.951z"></path>
<path fill="#e31313" style="fill: var(--color9, #e31313)" opacity="0.5" d="M17.074 8.555l-6.071 1.869c-2.212 0.681-3.171 2.332-2.65 4.564l1.428 6.12c0.521 2.232 2.069 3.111 4.282 2.431l6.071-1.869c2.212-0.681 3.165-2.33 2.644-4.562l-1.428-6.12c-0.521-2.232-2.063-3.113-4.276-2.432z"></path>
<path fill="#f03e3d" style="fill: var(--color1, #f03e3d); stroke: var(--color8, #000)" stroke="#000" stroke-linejoin="round" stroke-linecap="round" stroke-miterlimit="4" stroke-width="0.4706" d="M23.795 9.081h-8.686c-1.763 0-3.249 0.681-4.291 1.874-1.040 1.191-1.625 2.876-1.625 4.866v8.978c0 1.985 0.585 3.667 1.625 4.857 1.043 1.192 2.528 1.873 4.291 1.873h8.686c1.763 0 3.246-0.681 4.286-1.873 1.038-1.19 1.62-2.872 1.62-4.857v-8.978c0-1.99-0.582-3.675-1.619-4.866-1.040-1.194-2.524-1.875-4.286-1.875z"></path>
<path fill="#000" style="fill: var(--color8, #000)" d="M30.528 7.702c-0.813 0-1.472 0.723-1.472 1.615s0.659 1.615 1.472 1.615c0.813 0 1.472-0.723 1.472-1.615 0-0.428-0.155-0.839-0.431-1.142s-0.651-0.473-1.041-0.473z"></path>
<path fill="#000" style="fill: var(--color8, #000)" d="M24.688 18.359l-2.863 4.053c-0.12 0.176-0.301 0.291-0.501 0.318s-0.4-0.035-0.557-0.174l-2.749-2.364-2.476 3.512c-0.179 0.312-0.528 0.453-0.85 0.341s-0.533-0.446-0.516-0.814c-0.002-0.182 0.055-0.359 0.159-0.502l2.96-4.188c0.119-0.175 0.297-0.29 0.495-0.319s0.397 0.030 0.554 0.164l2.749 2.374 2.414-3.406c0.116-0.176 0.292-0.292 0.488-0.323s0.395 0.026 0.551 0.159c0.324 0.278 0.386 0.787 0.141 1.148v0.019z"></path>
</symbol>
<symbol id="icon-logo" viewBox="0 0 32 32">
<path fill="#02bc6b" style="fill: var(--color10, #02bc6b)" d="M2.506 28.891c-1.379 0-2.506-1.117-2.506-2.481v-8.675h6.309v-0.010h3.792c0.978-0.025 1.805-0.868 1.805-1.861 0-1.017-0.852-1.861-1.88-1.861l-10.026 0.002v-2.483c0-1.365 1.128-2.481 2.506-2.481h7.519c1.905 0 3.534 0.67 4.862 2.010 1.354 1.315 2.030 2.928 2.030 4.814 0 1.861-0.652 3.474-1.98 4.789s-2.933 2.010-4.812 2.035h-5.113v3.722c0 1.365-1.128 2.481-2.506 2.481z"></path>
<path fill="#02897a" style="fill: var(--color7, #02897a)" d="M20.078 6.16c2.769 2.663 4.164 5.979 4.164 9.749 0 3.707-1.337 7.020-4.063 9.691l-3.871-3.606c1.696-1.661 2.528-3.661 2.528-6.085 0-2.443-0.857-4.439-2.594-6.109l3.836-3.64z"></path>
<path fill="#035b81" style="fill: var(--color11, #035b81)" d="M26.004 1.6c3.988 3.942 5.996 8.831 5.996 14.441 0 5.523-1.926 10.408-5.849 14.359l-3.736-3.614c2.922-2.943 4.354-6.512 4.354-10.745 0-4.275-1.48-7.842-4.466-10.793l3.701-3.648z"></path>
<path fill="#028e37" style="fill: var(--color12, #028e37)" d="M0 22.709h5.013v3.702c0 1.365-1.128 2.481-2.506 2.481s-2.506-1.117-2.506-2.481v-3.702z"></path>
</symbol>
<symbol id="icon-logo-mini" viewBox="0 0 32 32">
<path fill="#02bc6b" style="fill: var(--color10, #02bc6b)" d="M2.506 28.567c-1.379 0-2.506-1.128-2.506-2.506v-8.763h6.309v-0.010h3.792c0.977-0.025 1.805-0.877 1.805-1.88 0-1.028-0.852-1.88-1.88-1.88l-10.026 0.002v-2.508c0-1.379 1.128-2.506 2.506-2.506h7.519c1.905 0 3.534 0.677 4.863 2.030 1.353 1.328 2.030 2.958 2.030 4.862 0 1.88-0.652 3.509-1.98 4.838s-2.933 2.030-4.812 2.055h-5.113v3.76c0 1.378-1.128 2.506-2.506 2.506z"></path>
<path fill="#02897a" style="fill: var(--color7, #02897a)" d="M20.078 5.606c2.769 2.69 4.165 6.040 4.165 9.848 0 3.744-1.337 7.091-4.063 9.789l-3.871-3.642c1.696-1.678 2.528-3.698 2.528-6.147 0-2.467-0.857-4.484-2.593-6.171l3.835-3.677z"></path>
<path fill="#035b81" style="fill: var(--color11, #035b81)" d="M26.005 1c3.988 3.982 5.995 8.92 5.995 14.587 0 5.579-1.926 10.513-5.849 14.504l-3.736-3.65c2.922-2.973 4.354-6.578 4.354-10.854 0-4.318-1.48-7.921-4.466-10.902l3.701-3.685z"></path>
<path fill="#028e37" style="fill: var(--color12, #028e37)" d="M0 22.322h5.013v3.739c0 1.379-1.128 2.506-2.506 2.506s-2.506-1.128-2.506-2.506v-3.739z"></path>
</symbol>
<symbol id="icon-minus-circle" viewBox="0 0 32 32">
<path fill="#02897a" style="fill: var(--color7, #02897a)" d="M0 16c0-8.832 7.168-16 16-16s16 7.168 16 16c0 8.832-7.168 16-16 16s-16-7.168-16-16zM8 17.6h16v-3.2h-16v3.2z"></path>
</symbol>
<symbol id="icon-mobile" viewBox="0 0 32 32">
<path fill="#02897a" style="fill: var(--color7, #02897a)" d="M22.649 2.286h-13.299c-1.377 0-2.494 1.152-2.494 2.571v22.286c0 1.42 1.117 2.571 2.494 2.571h13.299c1.377 0 2.494-1.152 2.494-2.571v-22.286c0-1.42-1.117-2.571-2.494-2.571zM18.494 26.238c0 0.52-0.374 0.905-0.831 0.905h-3.371c-0.41 0-0.784-0.386-0.784-0.857s0.374-0.857 0.831-0.857h3.325c0.457 0 0.831 0.386 0.831 0.809zM21.818 22.857h-11.636v-17.143h11.636v17.143z"></path>
</symbol>
<symbol id="icon-plus-circle" viewBox="0 0 32 32">
<path fill="#02897a" style="fill: var(--color7, #02897a)" d="M0 16c0-8.832 7.168-16 16-16s16 7.168 16 16c0 8.832-7.168 16-16 16s-16-7.168-16-16zM17.6 17.6h6.4v-3.2h-6.4v-6.4h-3.2v6.4h-6.4v3.2h6.4v6.4h3.2v-6.4z"></path>
</symbol>
<symbol id="icon-purpleheart" viewBox="0 0 32 32">
<path fill="#740a76" style="fill: var(--color13, #740a76)" d="M11.871 0h8.258c5.416 0 9.806 4.391 9.806 9.806v8.258c0 5.416-4.39 9.806-9.806 9.806h-8.258c-5.416 0-9.806-4.39-9.806-9.806v-8.258c0-5.416 4.391-9.806 9.806-9.806z"></path>
<path fill="#fff" style="fill: var(--color2, #fff)" d="M16 17.622c0.074 0 0.147-0.028 0.203-0.083l2.871-2.765c0.041-0.041 1.055-0.968 1.055-2.074 0-1.35-0.825-2.157-2.203-2.157-0.806 0-1.562 0.636-1.926 0.995-0.364-0.359-1.12-0.995-1.926-0.995-1.378 0-2.203 0.806-2.203 2.157 0 1.106 1.014 2.032 1.051 2.065l2.876 2.774c0.055 0.055 0.129 0.083 0.203 0.083z"></path>
</symbol>
<symbol id="icon-redheart" viewBox="0 0 32 32">
<path fill="#f03e3d" style="fill: var(--color1, #f03e3d)" d="M12.69 0h6.621c5.789 0 10.483 4.693 10.483 10.483v6.621c0 5.789-4.693 10.483-10.483 10.483h-6.621c-5.789 0-10.483-4.693-10.483-10.483v-6.621c0-5.789 4.693-10.483 10.483-10.483z"></path>
<path fill="#fff" style="fill: var(--color2, #fff)" d="M16 18.286c0.079 0 0.158-0.030 0.217-0.089l3.069-2.956c0.044-0.044 1.128-1.034 1.128-2.217 0-1.443-0.882-2.305-2.355-2.305-0.862 0-1.67 0.68-2.059 1.064-0.389-0.384-1.197-1.064-2.059-1.064-1.473 0-2.355 0.862-2.355 2.305 0 1.182 1.084 2.172 1.123 2.207l3.074 2.966c0.059 0.059 0.138 0.089 0.217 0.089z"></path>
</symbol>
<symbol id="icon-scales" viewBox="0 0 32 32">
<path fill="#4d8dff" style="fill: var(--color4, #4d8dff)" d="M11.871 0h8.258c5.416 0 9.806 4.391 9.806 9.806v8.258c0 5.416-4.39 9.806-9.806 9.806h-8.258c-5.416 0-9.806-4.39-9.806-9.806v-8.258c0-5.416 4.391-9.806 9.806-9.806z"></path>
<path fill="#fff" style="fill: var(--color2, #fff)" d="M16.249 13.235l0.604 0.281 0.899-0.267v-0.627c0-1.065-0.899-1.917-1.972-1.917-1.069 0-1.972 0.848-1.972 1.903v2.857c0 0.263-0.212 0.47-0.47 0.47s-0.47-0.207-0.47-0.47v-1.207h-1.512c0 1.212 0 1.226 0 1.226 0 1.092 0.885 1.977 1.977 1.977 1.083 0 1.977-0.871 1.977-1.949v-2.82c0-0.258 0.212-0.47 0.47-0.47s0.47 0.212 0.47 0.47v0.544zM18.691 14.258v1.267c0 0.258-0.212 0.465-0.47 0.465s-0.47-0.207-0.47-0.465v-1.244l-0.899 0.267-0.604-0.281v1.235c0 1.083 0.889 1.959 1.977 1.959 1.092 0 1.977-0.885 1.977-1.977 0 0 0-0.014 0-1.226h-1.512z"></path>
</symbol>
<symbol id="icon-star" viewBox="0 0 32 32">
<path fill="#f3cd03" style="fill: var(--color14, #f3cd03)" d="M30.699 11.725c-0.097-0.281-0.275-0.527-0.512-0.709s-0.524-0.292-0.824-0.315l-8.774-0.687-3.797-8.276c-0.121-0.267-0.318-0.493-0.566-0.652s-0.539-0.244-0.835-0.244c-0.296-0-0.587 0.084-0.836 0.243s-0.446 0.385-0.567 0.651l-3.797 8.277-8.774 0.687c-0.295 0.023-0.577 0.129-0.812 0.306s-0.414 0.416-0.514 0.69c-0.101 0.274-0.119 0.57-0.053 0.854s0.214 0.543 0.426 0.746l6.484 6.224-2.293 9.778c-0.070 0.296-0.047 0.606 0.064 0.889s0.307 0.527 0.56 0.7c0.254 0.173 0.555 0.266 0.863 0.268s0.611-0.087 0.867-0.256l8.38-5.501 8.38 5.501c0.262 0.171 0.571 0.26 0.886 0.253s0.619-0.108 0.874-0.291c0.254-0.183 0.446-0.437 0.548-0.73s0.112-0.61 0.027-0.908l-2.815-9.699 6.981-6.186c0.457-0.406 0.625-1.040 0.428-1.614z"></path>
</symbol>
<symbol id="icon-star-transparent" viewBox="0 0 32 32">
<path fill="#f3cd03" style="fill: var(--color14, #f3cd03)" d="M8.17 19.52l-2.293 9.778c-0.071 0.296-0.050 0.606 0.061 0.89s0.306 0.529 0.56 0.701c0.254 0.173 0.555 0.266 0.864 0.268s0.611-0.088 0.867-0.258l8.38-5.501 8.38 5.501c0.262 0.171 0.571 0.26 0.886 0.253s0.62-0.108 0.874-0.291c0.254-0.182 0.446-0.437 0.549-0.73s0.112-0.61 0.026-0.908l-2.815-9.699 6.981-6.186c0.224-0.198 0.383-0.457 0.459-0.743s0.065-0.589-0.032-0.87c-0.097-0.281-0.275-0.527-0.512-0.709s-0.524-0.291-0.824-0.315l-8.774-0.688-3.797-8.276c-0.121-0.266-0.318-0.493-0.567-0.652s-0.539-0.243-0.835-0.243c-0.296 0-0.587 0.085-0.835 0.243s-0.446 0.385-0.567 0.652l-3.797 8.276-8.774 0.687c-0.295 0.023-0.577 0.129-0.812 0.306s-0.414 0.416-0.514 0.69c-0.101 0.274-0.119 0.57-0.053 0.854s0.214 0.543 0.426 0.746l6.485 6.224zM12.561 12.964c0.275-0.021 0.539-0.115 0.764-0.271s0.404-0.369 0.517-0.617l2.769-6.033 2.769 6.033c0.113 0.248 0.291 0.461 0.517 0.617s0.489 0.25 0.764 0.271l6.113 0.477-5.034 4.462c-0.437 0.388-0.611 0.985-0.451 1.543l1.928 6.645-5.75-3.775c-0.252-0.167-0.549-0.256-0.853-0.256s-0.601 0.089-0.853 0.256l-6.008 3.945 1.616-6.889c0.059-0.253 0.051-0.518-0.023-0.767s-0.213-0.476-0.402-0.658l-4.676-4.489 6.295-0.494z"></path>
</symbol>
<symbol id="icon-triangle" viewBox="0 0 32 32">
<path fill="#02897a" style="fill: var(--color7, #02897a)" d="M27.866 12.891c2.441 1.354 2.441 4.864 0 6.218l-21.155 11.739c-2.37 1.315-5.281-0.399-5.281-3.109v-23.477c0-2.71 2.911-4.424 5.281-3.109l21.155 11.739z"></path>
</symbol>
<symbol id="icon-twitter" viewBox="0 0 32 32">
<path stroke-linejoin="round" stroke-linecap="round" stroke-miterlimit="4" stroke-width="2.6667" d="M30.667 4.013c-1.277 0.901-2.691 1.589-4.187 2.040-0.803-0.923-1.87-1.578-3.057-1.875s-2.437-0.222-3.58 0.214c-1.143 0.436-2.125 1.213-2.812 2.226s-1.047 2.211-1.031 3.435v1.333c-2.343 0.061-4.665-0.459-6.759-1.513s-3.894-2.609-5.241-4.527c0 0-5.333 12 6.667 17.333-2.746 1.864-6.017 2.799-9.333 2.667 12 6.667 26.667 0 26.667-15.333-0.001-0.371-0.037-0.742-0.107-1.107 1.361-1.342 2.321-3.036 2.773-4.893z"></path>
</symbol>
<symbol id="icon-universities" viewBox="0 0 32 32">
<path fill="#d6b1ff" style="fill: var(--color5, #d6b1ff)" d="M6.667 1.333h-4c-0.354 0-0.693 0.14-0.943 0.391s-0.391 0.589-0.391 0.943v26.667c0 0.354 0.14 0.693 0.391 0.943s0.589 0.391 0.943 0.391h4v-29.333z"></path>
<path fill="#f03e3d" style="fill: var(--color1, #f03e3d)" d="M9.333 30.667h13.333v-29.333h-13.333v29.333zM16 25.333c-0.354 0-0.693-0.141-0.943-0.391s-0.391-0.589-0.391-0.943c0-0.354 0.141-0.693 0.391-0.943s0.589-0.391 0.943-0.391c0.354 0 0.693 0.141 0.943 0.391s0.391 0.589 0.391 0.943c0 0.354-0.141 0.693-0.391 0.943s-0.589 0.391-0.943 0.391zM16 6.667c0.354 0 0.693 0.14 0.943 0.391s0.391 0.589 0.391 0.943c0 0.354-0.141 0.693-0.391 0.943s-0.589 0.391-0.943 0.391c-0.354 0-0.693-0.14-0.943-0.391s-0.391-0.589-0.391-0.943c0-0.354 0.141-0.693 0.391-0.943s0.589-0.391 0.943-0.391zM16 14.667c0.354 0 0.693 0.141 0.943 0.391s0.391 0.589 0.391 0.943c0 0.354-0.141 0.693-0.391 0.943s-0.589 0.391-0.943 0.391c-0.354 0-0.693-0.141-0.943-0.391s-0.391-0.589-0.391-0.943c0-0.354 0.141-0.693 0.391-0.943s0.589-0.391 0.943-0.391z"></path>
<path fill="#f03e3d" style="fill: var(--color1, #f03e3d)" d="M29.333 1.333h-4v29.333h4c0.354 0 0.693-0.141 0.943-0.391s0.391-0.589 0.391-0.943v-26.667c0-0.354-0.141-0.693-0.391-0.943s-0.589-0.391-0.943-0.391z"></path>
</symbol>
<symbol id="icon-hart" viewBox="0 0 32 32">
<path fill="#000" style="fill: var(--color8, #000)" d="M16.507 3.263l-9.091 2.599c-3.313 0.947-4.687 3.486-3.799 7.021l2.433 9.69c0.888 3.534 3.268 5 6.58 4.053l9.091-2.599c3.313-0.947 4.678-3.484 3.791-7.018l-2.433-9.69c-0.888-3.534-3.259-5.003-6.572-4.056z"></path>
<path fill="#11b5e4" style="fill: var(--color6, #11b5e4)" opacity="0.5" d="M20.987 15.961l-1.651-6.672c-0.599-2.42-2.098-3.505-4.068-2.95l-6.674 1.88c-2.003 0.564-2.779 2.29-2.18 4.71l1.651 6.672c0.608 2.459 2.072 3.512 4.074 2.948l6.674-1.88c1.971-0.555 2.782-2.248 2.173-4.708z"></path>
<path fill="#00acdd" style="fill: var(--color15, #00acdd)" d="M24.411 7.834h-9.411c-3.429 0-5.373 2.073-5.373 5.732v10.031c0 3.659 1.943 5.732 5.373 5.732h9.411c3.429 0 5.364-2.073 5.364-5.732v-10.031c0-3.659-1.934-5.732-5.364-5.732z"></path>
<path fill="#000" style="fill: var(--color8, #000)" d="M24.411 8.278c0.245 0 0.444-0.199 0.444-0.444s-0.199-0.444-0.444-0.444v0.889zM24.411 7.389c-0.245 0-0.444 0.199-0.444 0.444s0.199 0.444 0.444 0.444v-0.889zM24.411 7.389h-9.411v0.889h9.411v-0.889zM15 7.389c-1.806 0-3.279 0.548-4.297 1.634-1.014 1.082-1.52 2.638-1.52 4.542h0.889c0-1.754 0.465-3.065 1.28-3.934 0.811-0.865 2.024-1.353 3.648-1.353v-0.889zM9.183 13.566v10.031h0.889v-10.031h-0.889zM9.183 23.597c0 1.905 0.506 3.46 1.52 4.542 1.018 1.086 2.491 1.634 4.297 1.634v-0.889c-1.624 0-2.837-0.488-3.648-1.353-0.815-0.869-1.28-2.18-1.28-3.934h-0.889zM15 29.774h9.411v-0.889h-9.411v0.889zM24.411 29.774c1.806 0 3.277-0.548 4.293-1.635 1.012-1.082 1.516-2.638 1.516-4.542h-0.889c0 1.755-0.463 3.066-1.276 3.935-0.808 0.865-2.019 1.353-3.643 1.353v0.889zM30.219 23.597v-10.031h-0.889v10.031h0.889zM30.219 13.566c0-1.904-0.504-3.46-1.516-4.542-1.016-1.087-2.487-1.635-4.293-1.635v0.889c1.624 0 2.835 0.488 3.643 1.353 0.813 0.869 1.276 2.18 1.276 3.935h0.889z"></path>
<path fill="#000" style="fill: var(--color8, #000)" d="M19.736 12.229c-0.457 0-0.833 0.401-0.833 0.898v10.91c0 0.487 0.376 0.889 0.833 0.889 0.466 0 0.842-0.401 0.842-0.889v-10.91c0-0.497-0.376-0.898-0.842-0.898zM15.035 15.754c-0.457 0-0.833 0.401-0.833 0.898v7.385c0 0.487 0.376 0.889 0.833 0.889 0.466 0 0.842-0.401 0.842-0.889v-7.385c0-0.497-0.376-0.898-0.842-0.898zM23.533 20.55c0-0.497 0.376-0.898 0.842-0.898 0.457 0 0.833 0.401 0.833 0.898v3.487c0 0.487-0.376 0.889-0.842 0.889-0.457 0-0.833-0.401-0.833-0.889v-3.487z"></path>
<path fill="#000" style="fill: var(--color8, #000)" d="M19.081 13.127c0-0.411 0.308-0.72 0.655-0.72v-0.356c-0.567 0-1.011 0.493-1.011 1.076h0.356zM19.081 24.037v-10.91h-0.356v10.91h0.356zM19.736 24.748c-0.348 0-0.655-0.311-0.655-0.711h-0.356c0 0.574 0.445 1.066 1.011 1.066v-0.356zM20.4 24.037c0 0.399-0.306 0.711-0.664 0.711v0.356c0.573 0 1.019-0.491 1.019-1.066h-0.356zM20.4 13.127v10.91h0.356v-10.91h-0.356zM19.736 12.406c0.357 0 0.664 0.311 0.664 0.72h0.356c0-0.584-0.445-1.076-1.019-1.076v0.356zM14.38 16.652c0-0.411 0.308-0.72 0.655-0.72v-0.356c-0.567 0-1.011 0.493-1.011 1.076h0.356zM14.38 24.037v-7.385h-0.356v7.385h0.356zM15.035 24.748c-0.348 0-0.655-0.311-0.655-0.711h-0.356c0 0.574 0.445 1.066 1.011 1.066v-0.356zM15.699 24.037c0 0.399-0.306 0.711-0.664 0.711v0.356c0.573 0 1.019-0.491 1.019-1.066h-0.356zM15.699 16.652v7.385h0.356v-7.385h-0.356zM15.035 15.932c0.357 0 0.664 0.311 0.664 0.72h0.356c0-0.584-0.445-1.076-1.019-1.076v0.356zM24.375 19.474c-0.575 0-1.020 0.492-1.020 1.076h0.356c0-0.41 0.307-0.72 0.664-0.72v-0.356zM25.385 20.55c0-0.583-0.444-1.076-1.011-1.076v0.356c0.347 0 0.655 0.309 0.655 0.72h0.356zM25.385 24.037v-3.487h-0.356v3.487h0.356zM24.366 25.104c0.573 0 1.020-0.491 1.020-1.066h-0.356c0 0.399-0.306 0.711-0.664 0.711v0.356zM23.355 24.037c0 0.574 0.445 1.066 1.011 1.066v-0.356c-0.348 0-0.655-0.311-0.655-0.711h-0.356zM23.355 20.55v3.487h0.356v-3.487h-0.356z"></path>
</symbol>
</defs>
</svg>
